Coordinates
version=1
nRows=12
nColumns=24
inDegrees=yes

Units are S.I. units (second, meters, Newtons, ...)
Angles are in degrees.

endheader
time	pelvis_tilt	pelvis_list	pelvis_rotation	pelvis_tx	pelvis_ty	pelvis_tz	hip_flexion_r	hip_adduction_r	hip_rotation_r	knee_angle_r	ankle_angle_r	subtalar_angle_r	mtp_angle_r	hip_flexion_l	hip_adduction_l	hip_rotation_l	knee_angle_l	ankle_angle_l	subtalar_angle_l	mtp_angle_l	lumbar_extension	lumbar_bending	lumbar_rotation
      3.39500000	    -10.95343377	     -3.29106509	     -4.46734074	     -1.38794330	     -0.01731318	     -0.22646031	      4.91856247	      6.21947457	      2.77627908	     -9.23748627	      6.06962115	     -8.65735797	     11.37334459	     38.32788692	     -7.49160120	     -8.37432078	    -48.49628088	     -5.77994763	     -8.93286497	     12.89584390	      6.38470590	      3.67410530	      3.24794724
      3.40000000	    -10.94748086	     -3.17085235	     -4.59848211	     -1.38143409	     -0.01802866	     -0.22653158	      4.39099043	      6.06601888	      2.87863252	     -9.03559082	      6.31025993	     -8.64317255	     11.45549943	     38.59141784	     -7.40683646	     -8.31704783	    -46.98964989	     -5.58099224	     -8.34989780	     12.83785756	      6.30953311	      3.55531225	      3.52164550
      3.40500000	    -11.05629050	     -3.05314912	     -4.66809489	     -1.37490025	     -0.01889178	     -0.22666912	      3.99002857	      5.91892388	      2.92304684	     -8.83639318	      6.51225503	     -8.67837064	     11.49260324	     38.96836667	     -7.29154319	     -8.19518551	    -45.42785929	     -5.48017186	     -7.84776827	     12.77421853	      6.36836452	      3.43195983	      3.67461791
      3.41000000	    -11.04480442	     -2.91775839	     -4.80075206	     -1.36840997	     -0.01964094	     -0.22672916	      3.46215924	      5.74376230	      2.99719419	     -8.63730645	      6.75843021	     -8.61995767	     11.57244135	     39.15337877	     -7.21125768	     -8.15457857	    -43.80970312	     -5.24879746	     -7.23462768	     12.57320386	      6.28483278	      3.29076929	      3.96941953
      3.41500000	    -11.13146982	     -2.78475437	     -4.87536384	     -1.36185919	     -0.02051561	     -0.22683006	      3.03070483	      5.57499212	      3.02275031	     -8.42354745	      6.96681249	     -8.59407292	     11.62599704	     39.42803787	     -7.10646079	     -8.06663021	    -42.14540358	     -5.08634689	     -6.69549794	     12.35406176	      6.32362206	      3.14066422	      4.14752190
      3.42000000	    -11.14616735	     -2.63329113	     -4.98482036	     -1.35545450	     -0.02131573	     -0.22693931	      2.56689525	      5.38002758	      3.00520473	     -8.27389939	      7.20805644	     -8.51886328	     11.70691727	     39.57597696	     -6.99363742	     -7.97520513	    -40.42226323	     -4.84715891	     -6.14489236	     11.92716832	      6.24997092	      2.97410222	      4.41825025
      3.42500000	    -11.19526666	     -2.47858986	     -5.06370052	     -1.34896779	     -0.02216738	     -0.22706471	      2.12284310	      5.17932900	      2.94732527	     -8.09760638	      7.43967770	     -8.40989532	     11.79293345	     39.73311032	     -6.87217735	     -7.88550419	    -38.67229869	     -4.58850493	     -5.61760729	     11.33927120	      6.23192044	      2.80099532	      4.63585279
      3.43000000	    -11.32925068	     -2.36528322	     -5.08834313	     -1.34250073	     -0.02315448	     -0.22729720	      1.77641910	      5.02636368	      2.79296265	     -7.92947799	      7.62558691	     -8.31965156	     11.98629501	     39.99970798	     -6.75093997	     -7.69762316	    -37.00406803	     -4.01413229	     -4.95249935	      9.26956988	      6.29859537	      2.66959703	      4.77968823
      3.43500000	    -11.39831078	     -2.21323599	     -5.17174783	     -1.33605772	     -0.02404145	     -0.22736580	      1.36804783	      4.83894275	      2.72450551	     -7.77240329	      7.80752011	     -8.26507238	     12.01542292	     40.11439452	     -6.65264886	     -7.59951875	    -35.18222468	     -3.87776046	     -4.58407515	      9.11774315	      6.29076613	      2.48653053	      5.00949233
      3.44000000	    -11.56035765	     -2.10584236	     -5.20790939	     -1.32962884	     -0.02507621	     -0.22748617	      1.06637099	      4.71210376	      2.59842321	     -7.63147601	      7.94809248	     -8.27477934	     12.02493137	     40.33686942	     -6.57597597	     -7.41397424	    -33.38977929	     -3.75655250	     -4.23921021	      8.99951001	      6.37563247	      2.34916373	      5.15976282
      3.44500000	    -11.49298822	     -1.94015286	     -5.20099309	     -1.32314410	     -0.02582812	     -0.22775445	      0.51607060	      4.47157228	      2.20632825	     -7.48666334	      8.25980239	     -7.83556245	     12.12543544	     40.26349314	     -6.38410917	     -7.20828782	    -31.59813246	     -3.43239731	     -3.92067962	      7.90309098	      6.21978396	      2.12801167	      5.30336923
      3.45000000	    -11.56431063	     -1.75343857	     -5.31624491	     -1.31670079	     -0.02667963	     -0.22776845	      0.14732497	      4.25524767	      2.04751779	     -7.38101075	      8.39585013	     -7.76571092	     12.14128553	     40.30873098	     -6.29115312	     -7.17005851	    -29.80313941	     -3.32022514	     -3.79676205	      7.32885216	      6.21199459	      1.90215763	      5.59445074
